<svg xmlns="http://www.w3.org/2000/svg" xmlns:xlink="http://www.w3.org/1999/xlink" width="500" zoomAndPan="magnify" viewBox="0 0 375 374.999991" height="500" preserveAspectRatio="xMidYMid meet" version="1.0"><defs><clipPath id="fdddd0d04e"><path d="M 10.546875 16 L 318 16 L 318 359 L 10.546875 359 Z M 10.546875 16 " clip-rule="nonzero"/></clipPath><clipPath id="e555694957"><path d="M 182 44 L 364.546875 44 L 364.546875 359 L 182 359 Z M 182 44 " clip-rule="nonzero"/></clipPath><clipPath id="5a74fdc189"><path d="M 10.546875 16 L 318 16 L 318 359 L 10.546875 359 Z M 10.546875 16 " clip-rule="nonzero"/></clipPath><clipPath id="3ba98b33b9"><path d="M 182 44 L 364.546875 44 L 364.546875 359 L 182 359 Z M 182 44 " clip-rule="nonzero"/></clipPath></defs><g clip-path="url(#fdddd0d04e)"><path fill="#5e17eb" d="M 124.644531 261.691406 C 137.351562 255.542969 150.234375 248.605469 163.105469 240.867188 C 169.519531 237.011719 175.742188 233.058594 181.800781 229.035156 C 215.300781 206.796875 243.207031 182.292969 263.097656 158.660156 C 242.050781 177.613281 214.21875 196.371094 181.800781 212.785156 C 172.476562 217.511719 162.789062 222.050781 152.75 226.332031 C 139.3125 232.0625 125.964844 237.058594 112.882812 241.324219 L 100.25 219.441406 C 126.027344 212.597656 153.78125 202.226562 181.800781 188.476562 C 182.523438 188.125 183.238281 187.777344 183.960938 187.421875 C 227.710938 165.695312 264.570312 139.425781 290.21875 113.496094 C 262.71875 134.527344 225.15625 154.460938 181.800781 169.691406 C 179.480469 170.503906 177.15625 171.316406 174.800781 172.101562 C 143.335938 182.632812 112.648438 189.417969 84.761719 192.613281 L 59.363281 148.625 C 83.15625 163.324219 128.734375 162.585938 181.800781 147.488281 C 206.074219 140.578125 231.914062 130.671875 257.949219 117.855469 C 279.652344 107.171875 299.660156 95.371094 317.464844 83.042969 C 286.152344 42.4375 237.042969 16.261719 181.800781 16.261719 C 87.226562 16.261719 10.558594 92.929688 10.558594 187.507812 C 10.558594 281.703125 86.617188 358.128906 180.671875 358.738281 L 124.644531 261.691406 " fill-opacity="1" fill-rule="nonzero"/></g><g clip-path="url(#e555694957)"><path fill="#ff6600" d="M 364.46875 44.300781 L 182.933594 358.738281 C 276.988281 358.128906 353.042969 281.703125 353.042969 187.507812 C 353.042969 165.070312 348.722656 143.644531 340.875 124.003906 L 364.46875 44.300781 " fill-opacity="1" fill-rule="nonzero"/></g><g clip-path="url(#5a74fdc189)"><path fill="#ff6600" d="M 124.644531 261.691406 C 137.351562 255.542969 150.234375 248.605469 163.105469 240.867188 C 169.519531 237.011719 175.742188 233.058594 181.800781 229.035156 C 215.300781 206.796875 243.207031 182.292969 263.097656 158.660156 C 242.050781 177.613281 214.21875 196.371094 181.800781 212.785156 C 172.476562 217.511719 162.789062 222.050781 152.75 226.332031 C 139.3125 232.0625 125.964844 237.058594 112.882812 241.324219 L 100.25 219.441406 C 126.027344 212.597656 153.78125 202.226562 181.800781 188.476562 C 182.523438 188.125 183.238281 187.777344 183.960938 187.421875 C 227.710938 165.695312 264.570312 139.425781 290.21875 113.496094 C 262.71875 134.527344 225.15625 154.460938 181.800781 169.691406 C 179.480469 170.503906 177.15625 171.316406 174.800781 172.101562 C 143.335938 182.632812 112.648438 189.417969 84.761719 192.613281 L 59.363281 148.625 C 83.15625 163.324219 128.734375 162.585938 181.800781 147.488281 C 206.074219 140.578125 231.914062 130.671875 257.949219 117.855469 C 279.652344 107.171875 299.660156 95.371094 317.464844 83.042969 C 286.152344 42.4375 237.042969 16.261719 181.800781 16.261719 C 87.226562 16.261719 10.558594 92.929688 10.558594 187.507812 C 10.558594 281.703125 86.617188 358.128906 180.671875 358.738281 L 124.644531 261.691406 " fill-opacity="1" fill-rule="nonzero"/></g><g clip-path="url(#3ba98b33b9)"><path fill="#ff6600" d="M 364.46875 44.300781 L 182.933594 358.738281 C 276.988281 358.128906 353.042969 281.703125 353.042969 187.507812 C 353.042969 165.070312 348.722656 143.644531 340.875 124.003906 L 364.46875 44.300781 " fill-opacity="1" fill-rule="nonzero"/></g></svg>